<svg xmlns="http://www.w3.org/2000/svg" xmlns:xlink="http://www.w3.org/1999/xlink" width="117" height="39" viewBox="0 0 117 39">
  <defs>
    <clipPath id="clip-path">
      <rect id="사각형_158" data-name="사각형 158" width="117" height="39" fill="none"/>
    </clipPath>
  </defs>
  <g id="그룹_1695" data-name="그룹 1695" clip-path="url(#clip-path)">
    <path id="패스_330" data-name="패스 330" d="M12.444,30.112a5.447,5.447,0,0,1-.449,2.261,4.7,4.7,0,0,1-1.276,1.69,5.917,5.917,0,0,1-1.969,1.07,8.036,8.036,0,0,1-2.528.377,8.034,8.034,0,0,1-2.528-.377,5.909,5.909,0,0,1-1.969-1.07A4.692,4.692,0,0,1,.45,32.373,5.437,5.437,0,0,1,0,30.112V19.656a5.44,5.44,0,0,1,.45-2.261A4.691,4.691,0,0,1,1.726,15.7a5.9,5.9,0,0,1,1.969-1.07,8.04,8.04,0,0,1,2.528-.377,8.042,8.042,0,0,1,2.528.377,5.911,5.911,0,0,1,1.969,1.07,4.7,4.7,0,0,1,1.276,1.69,5.45,5.45,0,0,1,.449,2.261Zm-8.409-.705a3.417,3.417,0,0,0,.559,2.128,1.939,1.939,0,0,0,1.628.717,1.94,1.94,0,0,0,1.628-.717,3.419,3.419,0,0,0,.559-2.128V20.361a3.42,3.42,0,0,0-.559-2.128,1.941,1.941,0,0,0-1.628-.717,1.94,1.94,0,0,0-1.628.717,3.419,3.419,0,0,0-.559,2.128Zm14.194,7.2H14.194V14.428h4.034v7.635h2.625v3.5H18.228Z" transform="translate(0 -13.286)"/>
    <path id="패스_331" data-name="패스 331" d="M375.731,37.471H355.072V34.31h20.659Zm-1-6.857H356.36V18.383a1.7,1.7,0,0,1,.389-1.24,1.7,1.7,0,0,1,1.24-.389h16.454v3.161H360.395V22.1h13.878v3.161H360.395v2.189h14.339Z" transform="translate(-330.865 -15.611)"/>
    <path id="패스_332" data-name="패스 332" d="M729.589,20.84a6.709,6.709,0,0,1-.365,2.31,4.584,4.584,0,0,1-1.021,1.666,4.137,4.137,0,0,1-1.556,1,6.068,6.068,0,0,1-3.937,0,4.133,4.133,0,0,1-1.556-1,4.583,4.583,0,0,1-1.021-1.666,6.711,6.711,0,0,1-.365-2.31V17.777a6.713,6.713,0,0,1,.365-2.31,4.589,4.589,0,0,1,1.021-1.666,4.137,4.137,0,0,1,1.556-1,6.067,6.067,0,0,1,3.937,0,4.141,4.141,0,0,1,1.556,1,4.591,4.591,0,0,1,1.021,1.666,6.711,6.711,0,0,1,.365,2.31Zm9.965,14.054H721.739V27.114h4.035v4.377h13.78Zm-13.61-16.8a3.663,3.663,0,0,0-.353-1.8.987.987,0,0,0-1.823,0,3.659,3.659,0,0,0-.352,1.8v2.432a3.657,3.657,0,0,0,.352,1.8.987.987,0,0,0,1.823,0,3.661,3.661,0,0,0,.353-1.8Zm13.464,11.137h-3.621V21.278h-1.531v7.465h-3.6V12.768h3.6v5.009h1.531V12.768h3.621Z" transform="translate(-670.7 -11.625)"/>
    <path id="패스_333" data-name="패스 333" d="M1091.4,27.088h-4.132l.389-2.262h-6.635V21.666h7.194l.194-1.07a.6.6,0,0,0-.049-.45.605.605,0,0,0-.437-.109H1080.9V16.876h10.986a1.034,1.034,0,0,1,.851.3,1.052,1.052,0,0,1,.146.863Zm8.6,11.842h-17.669V32.073h13.392V30.93h-13.44V28.012h17.475v4.912a2.112,2.112,0,0,1-.365,1.459,2.11,2.11,0,0,1-1.458.365h-11.569v1.216h13.635Zm-.243-11.72h-4.034v-3.4h-2.8V20.5h2.8V16.754h4.034Z" transform="translate(-1007.213 -15.611)"/>
    <path id="패스_334" data-name="패스 334" d="M1452.09,23.319h-4.034V12.936h-2.771l1.07,9.021h-4.035L1440.594,6.37q-.073-.632-.51-.632h-.608a.38.38,0,0,0-.352.182,1.332,1.332,0,0,0-.158.45L1436.8,21.957h-4.034l2.357-16.218h-1.944V2.48h4.569V0h4.035V2.48h4.812V5.738h-2.163l.438,3.7h3.184V1.143h4.034Z" transform="translate(-1335.09)"/>
    <path id="패스_335" data-name="패스 335" d="M108.075,436.632l-3.379,9.3h1.587l.908-2.571h3.14l.908,2.571h1.587l-3.379-9.3Zm1.759,5.333h-2.144l1.072-3.026Z" transform="translate(-97.558 -406.851)"/>
    <path id="패스_336" data-name="패스 336" d="M255.123,439.564a2.862,2.862,0,0,0-.78-2.087,3.228,3.228,0,0,0-2.353-.844h-3.156v9.305h1.5v-3.468H252l.111,0,1.871,3.47H255.7l-2.071-3.8a2.674,2.674,0,0,0,1.491-2.572m-1.483,0c0,.984-.563,1.482-1.673,1.482H250.33v-3h1.626a1.765,1.765,0,0,1,1.3.42,1.489,1.489,0,0,1,.385,1.1" transform="translate(-231.87 -406.851)"/>
    <path id="패스_337" data-name="패스 337" d="M366.931,438.044h2.737v7.893h1.507v-7.893H373.9v-1.412h-6.97Z" transform="translate(-341.916 -406.851)"/>
    <path id="패스_338" data-name="패스 338" d="M561.337,440.7l.007-.326-1.415-.022-.015.313a3.486,3.486,0,0,1-.191,1l-1.507-1.86.365-.269a2.754,2.754,0,0,0,1.3-2.183,2.181,2.181,0,0,0-2.32-2.129,2.228,2.228,0,0,0-2.355,2.249,3.243,3.243,0,0,0,.954,2.074,3.115,3.115,0,0,0-1.623,2.495,2.586,2.586,0,0,0,.742,1.852,3.123,3.123,0,0,0,2.247.851,3.577,3.577,0,0,0,2.258-.778l.541.658h1.8l-1.409-1.743a4.074,4.074,0,0,0,.625-2.185m-4.662-3.215a.9.9,0,0,1,.272-.627.884.884,0,0,1,.631-.266h.007a.807.807,0,0,1,.833.761c0,.419-.2.7-.763,1.1l-.338.245a2.167,2.167,0,0,1-.643-1.218m.3,3.241.093-.069,1.816,2.216a2.175,2.175,0,0,1-1.372.5,1.393,1.393,0,0,1-1.505-1.327c0-.138.07-.642.968-1.318" transform="translate(-516.729 -405.545)"/>
    <path id="패스_339" data-name="패스 339" d="M745.351,436.326a2.226,2.226,0,0,1,2.265,1.774l.052.259h1.512l-.068-.381a3.7,3.7,0,0,0-3.761-3.1c-2.446,0-4.089,1.918-4.089,4.772s1.643,4.772,4.089,4.772a3.7,3.7,0,0,0,3.761-3.1l.068-.38h-1.51l-.053.258a2.234,2.234,0,0,1-2.265,1.775,2.355,2.355,0,0,1-1.707-.69,4.31,4.31,0,0,1,0-5.268,2.354,2.354,0,0,1,1.706-.69" transform="translate(-690.727 -405.217)"/>
    <path id="패스_340" data-name="패스 340" d="M894.386,442.622a2.13,2.13,0,0,1-4.254,0v-5.992h-1.5v6.052a3.322,3.322,0,0,0,.953,2.379,3.708,3.708,0,0,0,2.654,1.018h.028a3.711,3.711,0,0,0,2.658-1.017,3.323,3.323,0,0,0,.952-2.38v-6.052h-1.5Z" transform="translate(-828.055 -406.851)"/>
    <path id="패스_341" data-name="패스 341" d="M1035.053,436.632h-1.5v9.3h5.6v-1.412h-4.1Z" transform="translate(-963.095 -406.851)"/>
    <path id="패스_342" data-name="패스 342" d="M1122.541,438.044h2.737v7.893h1.507v-7.893h2.725v-1.412h-6.97Z" transform="translate(-1046.013 -406.851)"/>
    <path id="패스_343" data-name="패스 343" d="M1261.635,442.622a2.13,2.13,0,0,1-4.254,0v-5.992h-1.5v6.052a3.323,3.323,0,0,0,.953,2.379,3.708,3.708,0,0,0,2.654,1.018h.028a3.712,3.712,0,0,0,2.658-1.017,3.324,3.324,0,0,0,.952-2.38v-6.052h-1.5Z" transform="translate(-1170.267 -406.851)"/>
    <path id="패스_344" data-name="패스 344" d="M1407.1,439.564a2.862,2.862,0,0,0-.78-2.087,3.228,3.228,0,0,0-2.353-.844h-3.156v9.305h1.5v-3.468h1.672l.111,0,1.871,3.47h1.718l-2.071-3.8a2.674,2.674,0,0,0,1.491-2.572m-1.484,0c0,.984-.563,1.482-1.673,1.482H1402.3v-3h1.626a1.757,1.757,0,0,1,1.3.42,1.49,1.49,0,0,1,.385,1.1" transform="translate(-1305.308 -406.851)"/>
    <path id="패스_345" data-name="패스 345" d="M1527.933,444.525v-2.546h3.956v-1.4h-3.956v-2.534h4.219v-1.412h-5.715v9.305h5.8v-1.412Z" transform="translate(-1422.373 -406.851)"/>
  </g>
</svg>
